<mxfile host="app.diagrams.net" modified="2023-09-04T22:41:53.076Z" agent="Mozilla/5.0 (Windows NT 10.0; Win64; x64) AppleWebKit/537.36 (KHTML, like Gecko) Chrome/115.0.0.0 Safari/537.36 OPR/101.0.0.0" etag="nO8fwsM8TgDxjcvOXCa3" version="21.7.2" type="github" pages="6">
  <diagram name="Login celular" id="GVTlkyY-4-1J9gCwD_GB">
    <mxGraphModel dx="1393" dy="797" grid="1" gridSize="10" guides="1" tooltips="1" connect="1" arrows="1" fold="1" page="1" pageScale="1" pageWidth="827" pageHeight="1169" math="0" shadow="0">
      <root>
        <mxCell id="0" />
        <mxCell id="1" parent="0" />
        <mxCell id="_Vnz7kMd8-aC7HILPaNP-1" value="" style="rounded=0;whiteSpace=wrap;html=1;fillColor=#bac8d3;strokeColor=#23445d;" vertex="1" parent="1">
          <mxGeometry x="219" y="70" width="389" height="650" as="geometry" />
        </mxCell>
        <mxCell id="_Vnz7kMd8-aC7HILPaNP-4" value="" style="rounded=1;whiteSpace=wrap;html=1;" vertex="1" parent="1">
          <mxGeometry x="291" y="200" width="246" height="360" as="geometry" />
        </mxCell>
        <mxCell id="_Vnz7kMd8-aC7HILPaNP-5" value="Logo" style="whiteSpace=wrap;html=1;aspect=fixed;fillColor=#bac8d3;strokeColor=#23445d;" vertex="1" parent="1">
          <mxGeometry x="356" y="230" width="116" height="116" as="geometry" />
        </mxCell>
        <mxCell id="_Vnz7kMd8-aC7HILPaNP-6" value="E-mail&amp;nbsp;" style="rounded=1;whiteSpace=wrap;html=1;fillColor=none;" vertex="1" parent="1">
          <mxGeometry x="336" y="390" width="156" height="40" as="geometry" />
        </mxCell>
        <mxCell id="_Vnz7kMd8-aC7HILPaNP-8" value="&lt;div style=&quot;&quot;&gt;&lt;span style=&quot;background-color: initial;&quot;&gt;Senha&lt;/span&gt;&lt;/div&gt;" style="rounded=1;whiteSpace=wrap;html=1;align=center;fillColor=none;" vertex="1" parent="1">
          <mxGeometry x="336" y="450" width="156" height="40" as="geometry" />
        </mxCell>
        <mxCell id="_Vnz7kMd8-aC7HILPaNP-9" value="" style="rounded=0;whiteSpace=wrap;html=1;fillColor=#b0e3e6;strokeColor=#0e8088;" vertex="1" parent="1">
          <mxGeometry x="220" y="70" width="388" height="80" as="geometry" />
        </mxCell>
        <mxCell id="_Vnz7kMd8-aC7HILPaNP-10" value="About us" style="text;html=1;strokeColor=none;fillColor=none;align=center;verticalAlign=middle;whiteSpace=wrap;rounded=0;" vertex="1" parent="1">
          <mxGeometry x="432" y="95" width="60" height="30" as="geometry" />
        </mxCell>
        <mxCell id="_Vnz7kMd8-aC7HILPaNP-12" value="Logo" style="whiteSpace=wrap;html=1;aspect=fixed;fillColor=#bac8d3;strokeColor=#23445d;" vertex="1" parent="1">
          <mxGeometry x="336" y="83" width="54" height="54" as="geometry" />
        </mxCell>
        <mxCell id="_Vnz7kMd8-aC7HILPaNP-13" value="Esqueceu sua senha?" style="text;html=1;strokeColor=none;fillColor=none;align=center;verticalAlign=middle;whiteSpace=wrap;rounded=0;" vertex="1" parent="1">
          <mxGeometry x="380" y="510" width="140" height="30" as="geometry" />
        </mxCell>
        <mxCell id="_Vnz7kMd8-aC7HILPaNP-17" value="Tenha sua própria biblioteca,&amp;nbsp;" style="text;html=1;strokeColor=none;fillColor=none;align=center;verticalAlign=middle;whiteSpace=wrap;rounded=0;" vertex="1" parent="1">
          <mxGeometry x="279.5" y="580" width="180" height="30" as="geometry" />
        </mxCell>
        <mxCell id="_Vnz7kMd8-aC7HILPaNP-18" value="crie uma conta" style="rounded=1;whiteSpace=wrap;html=1;fillColor=#b0e3e6;strokeColor=#0e8088;" vertex="1" parent="1">
          <mxGeometry x="448.5" y="577" width="100" height="35" as="geometry" />
        </mxCell>
      </root>
    </mxGraphModel>
  </diagram>
  <diagram id="5j30PcGJF5uYQx5uAX43" name="Não colocou a senha">
    <mxGraphModel dx="1393" dy="797" grid="1" gridSize="10" guides="1" tooltips="1" connect="1" arrows="1" fold="1" page="1" pageScale="1" pageWidth="827" pageHeight="1169" math="0" shadow="0">
      <root>
        <mxCell id="0" />
        <mxCell id="1" parent="0" />
        <mxCell id="Iev5Kh5A5x8qIlKAtAze-1" value="" style="rounded=0;whiteSpace=wrap;html=1;fillColor=#bac8d3;strokeColor=#23445d;" vertex="1" parent="1">
          <mxGeometry x="219" y="70" width="389" height="650" as="geometry" />
        </mxCell>
        <mxCell id="Iev5Kh5A5x8qIlKAtAze-2" value="" style="rounded=1;whiteSpace=wrap;html=1;" vertex="1" parent="1">
          <mxGeometry x="291" y="200" width="246" height="360" as="geometry" />
        </mxCell>
        <mxCell id="Iev5Kh5A5x8qIlKAtAze-3" value="Logo" style="whiteSpace=wrap;html=1;aspect=fixed;fillColor=#bac8d3;strokeColor=#23445d;" vertex="1" parent="1">
          <mxGeometry x="356" y="230" width="116" height="116" as="geometry" />
        </mxCell>
        <mxCell id="Iev5Kh5A5x8qIlKAtAze-4" value="E-mail&amp;nbsp;" style="rounded=1;whiteSpace=wrap;html=1;fillColor=none;" vertex="1" parent="1">
          <mxGeometry x="336" y="390" width="156" height="40" as="geometry" />
        </mxCell>
        <mxCell id="Iev5Kh5A5x8qIlKAtAze-5" value="&lt;div style=&quot;&quot;&gt;&lt;span style=&quot;background-color: initial;&quot;&gt;Senha&lt;/span&gt;&lt;/div&gt;" style="rounded=1;whiteSpace=wrap;html=1;align=center;fillColor=none;" vertex="1" parent="1">
          <mxGeometry x="336" y="450" width="156" height="40" as="geometry" />
        </mxCell>
        <mxCell id="Iev5Kh5A5x8qIlKAtAze-6" value="" style="rounded=0;whiteSpace=wrap;html=1;fillColor=#b0e3e6;strokeColor=#0e8088;" vertex="1" parent="1">
          <mxGeometry x="220" y="70" width="388" height="80" as="geometry" />
        </mxCell>
        <mxCell id="Iev5Kh5A5x8qIlKAtAze-7" value="About us" style="text;html=1;strokeColor=none;fillColor=none;align=center;verticalAlign=middle;whiteSpace=wrap;rounded=0;" vertex="1" parent="1">
          <mxGeometry x="432" y="95" width="60" height="30" as="geometry" />
        </mxCell>
        <mxCell id="Iev5Kh5A5x8qIlKAtAze-8" value="Logo" style="whiteSpace=wrap;html=1;aspect=fixed;fillColor=#bac8d3;strokeColor=#23445d;" vertex="1" parent="1">
          <mxGeometry x="336" y="83" width="54" height="54" as="geometry" />
        </mxCell>
        <mxCell id="Iev5Kh5A5x8qIlKAtAze-9" value="Esqueceu sua senha?" style="text;html=1;strokeColor=none;fillColor=none;align=center;verticalAlign=middle;whiteSpace=wrap;rounded=0;" vertex="1" parent="1">
          <mxGeometry x="380" y="510" width="140" height="30" as="geometry" />
        </mxCell>
        <mxCell id="Iev5Kh5A5x8qIlKAtAze-10" value="Tenha sua própria biblioteca,&amp;nbsp;" style="text;html=1;strokeColor=none;fillColor=none;align=center;verticalAlign=middle;whiteSpace=wrap;rounded=0;" vertex="1" parent="1">
          <mxGeometry x="279.5" y="580" width="180" height="30" as="geometry" />
        </mxCell>
        <mxCell id="Iev5Kh5A5x8qIlKAtAze-11" value="crie uma conta" style="rounded=1;whiteSpace=wrap;html=1;fillColor=#b0e3e6;strokeColor=#0e8088;" vertex="1" parent="1">
          <mxGeometry x="448.5" y="577" width="100" height="35" as="geometry" />
        </mxCell>
        <mxCell id="Iev5Kh5A5x8qIlKAtAze-12" value="Este campo é obrigatório" style="rounded=1;whiteSpace=wrap;html=1;fillColor=#fad9d5;strokeColor=#ae4132;" vertex="1" parent="1">
          <mxGeometry x="510" y="440" width="150" height="60" as="geometry" />
        </mxCell>
      </root>
    </mxGraphModel>
  </diagram>
  <diagram id="iSQCiqfyHvXSMnLel1sk" name="Errou a senha ou e-mail">
    <mxGraphModel dx="1393" dy="797" grid="1" gridSize="10" guides="1" tooltips="1" connect="1" arrows="1" fold="1" page="1" pageScale="1" pageWidth="827" pageHeight="1169" math="0" shadow="0">
      <root>
        <mxCell id="0" />
        <mxCell id="1" parent="0" />
        <mxCell id="z2VfK01gAewwDS-uwrKM-1" value="" style="rounded=0;whiteSpace=wrap;html=1;fillColor=#bac8d3;strokeColor=#23445d;" vertex="1" parent="1">
          <mxGeometry x="219" y="70" width="389" height="650" as="geometry" />
        </mxCell>
        <mxCell id="z2VfK01gAewwDS-uwrKM-2" value="" style="rounded=1;whiteSpace=wrap;html=1;" vertex="1" parent="1">
          <mxGeometry x="291" y="200" width="246" height="360" as="geometry" />
        </mxCell>
        <mxCell id="z2VfK01gAewwDS-uwrKM-3" value="Logo" style="whiteSpace=wrap;html=1;aspect=fixed;fillColor=#bac8d3;strokeColor=#23445d;" vertex="1" parent="1">
          <mxGeometry x="356" y="230" width="116" height="116" as="geometry" />
        </mxCell>
        <mxCell id="z2VfK01gAewwDS-uwrKM-4" value="E-mail&amp;nbsp;" style="rounded=1;whiteSpace=wrap;html=1;fillColor=none;" vertex="1" parent="1">
          <mxGeometry x="336" y="390" width="156" height="40" as="geometry" />
        </mxCell>
        <mxCell id="z2VfK01gAewwDS-uwrKM-5" value="&lt;div style=&quot;&quot;&gt;&lt;span style=&quot;background-color: initial;&quot;&gt;Senha&lt;/span&gt;&lt;/div&gt;" style="rounded=1;whiteSpace=wrap;html=1;align=center;fillColor=none;" vertex="1" parent="1">
          <mxGeometry x="336" y="450" width="156" height="40" as="geometry" />
        </mxCell>
        <mxCell id="z2VfK01gAewwDS-uwrKM-6" value="" style="rounded=0;whiteSpace=wrap;html=1;fillColor=#b0e3e6;strokeColor=#0e8088;" vertex="1" parent="1">
          <mxGeometry x="220" y="70" width="388" height="80" as="geometry" />
        </mxCell>
        <mxCell id="z2VfK01gAewwDS-uwrKM-7" value="About us" style="text;html=1;strokeColor=none;fillColor=none;align=center;verticalAlign=middle;whiteSpace=wrap;rounded=0;" vertex="1" parent="1">
          <mxGeometry x="432" y="95" width="60" height="30" as="geometry" />
        </mxCell>
        <mxCell id="z2VfK01gAewwDS-uwrKM-8" value="Logo" style="whiteSpace=wrap;html=1;aspect=fixed;fillColor=#bac8d3;strokeColor=#23445d;" vertex="1" parent="1">
          <mxGeometry x="336" y="83" width="54" height="54" as="geometry" />
        </mxCell>
        <mxCell id="z2VfK01gAewwDS-uwrKM-9" value="Esqueceu sua senha?" style="text;html=1;strokeColor=none;fillColor=none;align=center;verticalAlign=middle;whiteSpace=wrap;rounded=0;" vertex="1" parent="1">
          <mxGeometry x="380" y="510" width="140" height="30" as="geometry" />
        </mxCell>
        <mxCell id="z2VfK01gAewwDS-uwrKM-10" value="Tenha sua própria biblioteca,&amp;nbsp;" style="text;html=1;strokeColor=none;fillColor=none;align=center;verticalAlign=middle;whiteSpace=wrap;rounded=0;" vertex="1" parent="1">
          <mxGeometry x="279.5" y="580" width="180" height="30" as="geometry" />
        </mxCell>
        <mxCell id="z2VfK01gAewwDS-uwrKM-11" value="crie uma conta" style="rounded=1;whiteSpace=wrap;html=1;fillColor=#b0e3e6;strokeColor=#0e8088;" vertex="1" parent="1">
          <mxGeometry x="448.5" y="577" width="100" height="35" as="geometry" />
        </mxCell>
        <mxCell id="z2VfK01gAewwDS-uwrKM-12" value="&lt;div style=&quot;&quot;&gt;&lt;span style=&quot;background-color: initial;&quot;&gt;&lt;span style=&quot;white-space: pre;&quot;&gt;&#x9;&lt;/span&gt;Por favor, verifique suas &lt;span style=&quot;white-space: pre;&quot;&gt;&#x9;&lt;/span&gt;credenciais, não &lt;span style=&quot;white-space: pre;&quot;&gt;&#x9;&lt;/span&gt;encontramos os dados &lt;span style=&quot;white-space: pre;&quot;&gt;&#x9;&lt;/span&gt;inseridos em nossos &lt;span style=&quot;white-space: pre;&quot;&gt;&#x9;&lt;/span&gt;bancos&lt;/span&gt;&lt;/div&gt;" style="rounded=1;whiteSpace=wrap;html=1;fillColor=#fad9d5;strokeColor=#ae4132;align=left;" vertex="1" parent="1">
          <mxGeometry x="530" y="370" width="180" height="140" as="geometry" />
        </mxCell>
      </root>
    </mxGraphModel>
  </diagram>
  <diagram id="jhdMi9R5E36azpEf9Mw-" name="Sobre nós">
    <mxGraphModel dx="1393" dy="797" grid="1" gridSize="10" guides="1" tooltips="1" connect="1" arrows="1" fold="1" page="1" pageScale="1" pageWidth="827" pageHeight="1169" math="0" shadow="0">
      <root>
        <mxCell id="0" />
        <mxCell id="1" parent="0" />
        <mxCell id="lFITdpPLAGQwIu4XsxSa-1" value="" style="rounded=0;whiteSpace=wrap;html=1;fillColor=#bac8d3;strokeColor=#23445d;" vertex="1" parent="1">
          <mxGeometry x="219" y="70" width="389" height="650" as="geometry" />
        </mxCell>
        <mxCell id="lFITdpPLAGQwIu4XsxSa-2" value="&lt;h1 style=&quot;&quot;&gt;&lt;font style=&quot;font-size: 24px;&quot;&gt;Bem vindo à sua biblioteca online&lt;/font&gt;&lt;/h1&gt;&lt;div style=&quot;font-size: 24px;&quot;&gt;&lt;font style=&quot;font-size: 24px;&quot;&gt;&lt;br&gt;&lt;/font&gt;&lt;/div&gt;&lt;div style=&quot;text-align: justify; font-size: 16px;&quot;&gt;&lt;font style=&quot;font-size: 16px;&quot;&gt;&lt;span style=&quot;white-space: pre;&quot;&gt;&#x9;&lt;/span&gt;Esta plataforma lhe concede o prazer de organizar seus livros de forma mais prática e simples. Não só isso, nosso acervo de livros não é limitado como a biblioteca mais famosa da sua cidade. Por ser uma plataforma online, nosso banco de dados é rico e amplo como você nunca viu!&lt;/font&gt;&lt;/div&gt;&lt;div style=&quot;text-align: justify; font-size: 16px;&quot;&gt;&lt;font style=&quot;font-size: 16px;&quot;&gt;&lt;span style=&quot;white-space: pre;&quot;&gt;&#x9;&lt;/span&gt;Aproveite para não só organizar os livros que já leu, faça estantes de gêneros que gosta e de livros que espera ler no futuro.&lt;/font&gt;&lt;/div&gt;&lt;div style=&quot;text-align: justify; font-size: 16px;&quot;&gt;&lt;font style=&quot;font-size: 16px;&quot;&gt;&lt;br&gt;&lt;/font&gt;&lt;/div&gt;&lt;div style=&quot;text-align: justify; font-size: 16px;&quot;&gt;&lt;font style=&quot;font-size: 16px;&quot;&gt;&lt;br&gt;&lt;/font&gt;&lt;/div&gt;&lt;div style=&quot;font-size: 24px;&quot;&gt;Boa leitura.&lt;/div&gt;" style="text;html=1;strokeColor=none;fillColor=none;spacing=5;spacingTop=-20;whiteSpace=wrap;overflow=hidden;rounded=0;align=center;" vertex="1" parent="1">
          <mxGeometry x="254" y="300" width="320" height="470" as="geometry" />
        </mxCell>
        <mxCell id="Wd9VlCSMDwUmrlG7sKEt-1" value="" style="rounded=0;whiteSpace=wrap;html=1;fillColor=#b0e3e6;strokeColor=#0e8088;" vertex="1" parent="1">
          <mxGeometry x="220" y="70" width="388" height="80" as="geometry" />
        </mxCell>
        <mxCell id="Wd9VlCSMDwUmrlG7sKEt-2" value="Log in" style="text;html=1;strokeColor=none;fillColor=none;align=center;verticalAlign=middle;whiteSpace=wrap;rounded=0;" vertex="1" parent="1">
          <mxGeometry x="384" y="95" width="60" height="30" as="geometry" />
        </mxCell>
        <mxCell id="Wd9VlCSMDwUmrlG7sKEt-3" value="Logo" style="whiteSpace=wrap;html=1;aspect=fixed;fillColor=#bac8d3;strokeColor=#23445d;" vertex="1" parent="1">
          <mxGeometry x="351" y="160" width="126" height="126" as="geometry" />
        </mxCell>
      </root>
    </mxGraphModel>
  </diagram>
  <diagram id="urMuU1X5GBrjrsA95rgd" name="Biblioteca do iniciante">
    <mxGraphModel dx="1393" dy="797" grid="1" gridSize="10" guides="1" tooltips="1" connect="1" arrows="1" fold="1" page="1" pageScale="1" pageWidth="827" pageHeight="1169" math="0" shadow="0">
      <root>
        <mxCell id="0" />
        <mxCell id="1" parent="0" />
        <mxCell id="YCObLacVDjcpMJiItZWH-1" value="" style="rounded=0;whiteSpace=wrap;html=1;fillColor=#bac8d3;strokeColor=#23445d;" vertex="1" parent="1">
          <mxGeometry x="219" y="70" width="389" height="650" as="geometry" />
        </mxCell>
        <mxCell id="YCObLacVDjcpMJiItZWH-6" value="" style="rounded=0;whiteSpace=wrap;html=1;fillColor=#b0e3e6;strokeColor=#0e8088;" vertex="1" parent="1">
          <mxGeometry x="220" y="70" width="388" height="80" as="geometry" />
        </mxCell>
        <mxCell id="YCObLacVDjcpMJiItZWH-8" value="Logo" style="whiteSpace=wrap;html=1;aspect=fixed;fillColor=#bac8d3;strokeColor=#23445d;" vertex="1" parent="1">
          <mxGeometry x="330" y="83" width="54" height="54" as="geometry" />
        </mxCell>
        <mxCell id="YCObLacVDjcpMJiItZWH-13" value="=&lt;br&gt;" style="rounded=0;whiteSpace=wrap;html=1;" vertex="1" parent="1">
          <mxGeometry x="472" y="92.88" width="33" height="34.25" as="geometry" />
        </mxCell>
        <mxCell id="ymAz_gbcNahTDDvdd__H-2" value="&lt;h1 style=&quot;text-align: center;&quot;&gt;Minha estante&lt;/h1&gt;&lt;div style=&quot;text-align: center;&quot;&gt;&lt;br&gt;&lt;/div&gt;&lt;div&gt;&amp;nbsp;Sua biblioteca está vazia, tente procurar por livros em nosso &lt;font color=&quot;#1699f1&quot;&gt;acervo&lt;/font&gt;.&lt;br&gt;&lt;/div&gt;" style="text;html=1;strokeColor=none;fillColor=none;spacing=5;spacingTop=-20;whiteSpace=wrap;overflow=hidden;rounded=0;" vertex="1" parent="1">
          <mxGeometry x="223.5" y="260" width="381" height="190" as="geometry" />
        </mxCell>
        <mxCell id="ymAz_gbcNahTDDvdd__H-3" value="&lt;font style=&quot;font-size: 24px;&quot;&gt;+&lt;/font&gt;" style="rounded=0;whiteSpace=wrap;html=1;fillColor=#b0e3e6;strokeColor=#0e8088;" vertex="1" parent="1">
          <mxGeometry x="230" y="380" width="90" height="90" as="geometry" />
        </mxCell>
      </root>
    </mxGraphModel>
  </diagram>
  <diagram id="y0oxkNuPC1xuVARw0NIX" name="Menu dropdown">
    <mxGraphModel dx="1393" dy="797" grid="1" gridSize="10" guides="1" tooltips="1" connect="1" arrows="1" fold="1" page="1" pageScale="1" pageWidth="827" pageHeight="1169" math="0" shadow="0">
      <root>
        <mxCell id="0" />
        <mxCell id="1" parent="0" />
        <mxCell id="TgxWBkNZN2Fd-dsnSkrm-1" value="" style="rounded=0;whiteSpace=wrap;html=1;fillColor=#bac8d3;strokeColor=#23445d;" vertex="1" parent="1">
          <mxGeometry x="219" y="70" width="389" height="650" as="geometry" />
        </mxCell>
        <mxCell id="TgxWBkNZN2Fd-dsnSkrm-2" value="" style="rounded=0;whiteSpace=wrap;html=1;fillColor=#b0e3e6;strokeColor=#0e8088;" vertex="1" parent="1">
          <mxGeometry x="220" y="70" width="388" height="80" as="geometry" />
        </mxCell>
        <mxCell id="TgxWBkNZN2Fd-dsnSkrm-3" value="Logo" style="whiteSpace=wrap;html=1;aspect=fixed;fillColor=#bac8d3;strokeColor=#23445d;" vertex="1" parent="1">
          <mxGeometry x="330" y="83" width="54" height="54" as="geometry" />
        </mxCell>
        <mxCell id="TgxWBkNZN2Fd-dsnSkrm-4" value="=&lt;br&gt;" style="rounded=0;whiteSpace=wrap;html=1;" vertex="1" parent="1">
          <mxGeometry x="472" y="92.88" width="33" height="34.25" as="geometry" />
        </mxCell>
        <mxCell id="TgxWBkNZN2Fd-dsnSkrm-5" value="&lt;h1 style=&quot;text-align: center;&quot;&gt;Minha estante&lt;/h1&gt;&lt;div style=&quot;text-align: center;&quot;&gt;&lt;br&gt;&lt;/div&gt;&lt;div&gt;&amp;nbsp;Sua biblioteca está vazia, tente procurar por livros em nosso &lt;font color=&quot;#1699f1&quot;&gt;acervo&lt;/font&gt;.&lt;br&gt;&lt;/div&gt;" style="text;html=1;strokeColor=none;fillColor=none;spacing=5;spacingTop=-20;whiteSpace=wrap;overflow=hidden;rounded=0;" vertex="1" parent="1">
          <mxGeometry x="223.5" y="260" width="381" height="190" as="geometry" />
        </mxCell>
        <mxCell id="TgxWBkNZN2Fd-dsnSkrm-6" value="&lt;font style=&quot;font-size: 24px;&quot;&gt;+&lt;/font&gt;" style="rounded=0;whiteSpace=wrap;html=1;fillColor=#b0e3e6;strokeColor=#0e8088;" vertex="1" parent="1">
          <mxGeometry x="230" y="380" width="90" height="90" as="geometry" />
        </mxCell>
        <mxCell id="TgxWBkNZN2Fd-dsnSkrm-7" value="" style="rounded=0;whiteSpace=wrap;html=1;fillColor=#b0e3e6;strokeColor=#0e8088;" vertex="1" parent="1">
          <mxGeometry x="280" y="137" width="225" height="303" as="geometry" />
        </mxCell>
        <mxCell id="TgxWBkNZN2Fd-dsnSkrm-8" value="&lt;font style=&quot;font-size: 17px;&quot;&gt;Minha biblioteca&lt;/font&gt;" style="rounded=1;whiteSpace=wrap;html=1;fillColor=none;" vertex="1" parent="1">
          <mxGeometry x="292.5" y="150" width="200" height="60" as="geometry" />
        </mxCell>
        <mxCell id="TgxWBkNZN2Fd-dsnSkrm-9" value="&lt;font style=&quot;font-size: 17px;&quot;&gt;Configurações&lt;/font&gt;" style="rounded=1;whiteSpace=wrap;html=1;" vertex="1" parent="1">
          <mxGeometry x="292.5" y="230" width="200" height="60" as="geometry" />
        </mxCell>
        <mxCell id="TgxWBkNZN2Fd-dsnSkrm-10" value="&lt;font style=&quot;font-size: 17px;&quot;&gt;Sobre nós&lt;/font&gt;" style="rounded=1;whiteSpace=wrap;html=1;" vertex="1" parent="1">
          <mxGeometry x="292.5" y="310" width="200" height="60" as="geometry" />
        </mxCell>
        <mxCell id="TgxWBkNZN2Fd-dsnSkrm-12" value="Sair" style="rounded=1;whiteSpace=wrap;html=1;" vertex="1" parent="1">
          <mxGeometry x="452.5" y="390" width="40" height="40" as="geometry" />
        </mxCell>
      </root>
    </mxGraphModel>
  </diagram>
</mxfile>
